<svg width="435" height="356" viewBox="0 0 435 356" fill="none" xmlns="http://www.w3.org/2000/svg">
<path d="M296.431 117.52C303.088 117.52 309.745 117.52 316.603 117.52C316.603 130.543 316.603 143.567 316.603 156.985C323.259 156.985 329.916 156.985 336.774 156.985C336.774 163.642 336.774 170.298 336.774 177.157C356.165 177.157 375.556 177.157 395.534 177.157C395.534 183.813 395.534 190.47 395.534 197.328C388.878 197.328 382.221 197.328 375.363 197.328C375.363 203.695 375.363 210.062 375.363 216.622C368.996 216.622 362.629 216.622 356.069 216.622C356.069 236.303 356.069 255.983 356.069 276.259C349.701 276.259 343.334 276.259 336.774 276.259C336.774 269.603 336.774 262.946 336.774 256.088C330.118 256.088 323.461 256.088 316.603 256.088C316.603 249.721 316.603 243.354 316.603 236.794C309.946 236.794 303.29 236.794 296.431 236.794C296.431 243.161 296.431 249.528 296.431 256.088C290.064 256.088 283.697 256.088 277.137 256.088C277.137 262.745 277.137 269.401 277.137 276.259C270.481 276.259 263.824 276.259 256.966 276.259C256.966 256.869 256.966 237.478 256.966 217.499C250.599 217.499 244.231 217.499 237.671 217.499C236.794 216.622 236.794 216.622 236.695 214.752C236.699 213.948 236.704 213.144 236.709 212.316C236.711 211.535 236.713 210.754 236.715 209.949C236.723 208.949 236.731 207.95 236.74 206.92C236.758 203.755 236.776 200.589 236.794 197.328C230.427 197.328 224.06 197.328 217.5 197.328C217.5 190.671 217.5 184.015 217.5 177.157C237.18 177.157 256.86 177.157 277.137 177.157C277.137 170.5 277.137 163.844 277.137 156.985C283.504 156.985 289.871 156.985 296.431 156.985C296.431 143.962 296.431 130.938 296.431 117.52Z" fill="#020202"/>
<path d="M356.07 19.293C362.437 19.293 368.805 19.293 375.365 19.293C375.365 32.3167 375.365 45.3403 375.365 58.7587C381.732 58.7587 388.099 58.7587 394.659 58.7587C394.659 84.8061 394.659 110.853 394.659 137.69C401.316 137.69 407.972 137.69 414.83 137.69C414.83 144.057 414.83 150.424 414.83 156.985C421.487 156.985 428.143 156.985 435.002 156.985C435.002 203.002 435.002 249.019 435.002 296.43C428.345 296.43 421.689 296.43 414.83 296.43C414.83 302.797 414.83 309.164 414.83 315.724C408.463 315.724 402.096 315.724 395.536 315.724C395.536 322.092 395.536 328.459 395.536 335.019C382.512 335.019 369.489 335.019 356.07 335.019C356.07 328.652 356.07 322.285 356.07 315.724C368.805 315.724 381.539 315.724 394.659 315.724C394.659 309.068 394.659 302.411 394.659 295.553C401.316 295.553 407.972 295.553 414.83 295.553C414.83 250.115 414.83 204.677 414.83 157.862C401.807 157.862 388.783 157.862 375.365 157.862C375.365 131.525 375.365 105.188 375.365 78.053C368.998 78.053 362.63 78.053 356.07 78.053C356.07 58.6622 356.07 39.2714 356.07 19.293Z" fill="#020202"/>
<path d="M59.6371 19.293C66.0042 19.293 72.3714 19.293 78.9315 19.293C78.9315 38.6838 78.9315 58.0746 78.9315 78.053C72.5643 78.053 66.1972 78.053 59.6371 78.053C59.6371 104.39 59.6371 130.727 59.6371 157.862C46.6134 157.862 33.5897 157.862 20.1714 157.862C20.1714 203.3 20.1714 248.738 20.1714 295.553C26.8279 295.553 33.4845 295.553 40.3427 295.553C40.3427 302.21 40.3427 308.866 40.3427 315.724C53.077 315.724 65.8113 315.724 78.9315 315.724C78.9315 322.092 78.9315 328.459 78.9315 335.019C65.9078 335.019 52.8841 335.019 39.4657 335.019C39.4657 328.652 39.4657 322.285 39.4657 315.724C33.0986 315.724 26.7315 315.724 20.1714 315.724C20.1714 309.357 20.1714 302.99 20.1714 296.43C13.5148 296.43 6.85827 296.43 0 296.43C0 250.413 0 204.396 0 156.985C6.65655 156.985 13.3131 156.985 20.1714 156.985C20.1714 150.617 20.1714 144.25 20.1714 137.69C26.8279 137.69 33.4845 137.69 40.3427 137.69C40.3427 111.643 40.3427 85.5954 40.3427 58.7587C46.7099 58.7587 53.077 58.7587 59.6371 58.7587C59.6371 45.735 59.6371 32.7113 59.6371 19.293Z" fill="#010101"/>
<path d="M78.9297 335.02C170.385 335.02 261.84 335.02 356.067 335.02C356.067 341.676 356.067 348.333 356.067 355.191C264.612 355.191 173.156 355.191 78.9297 355.191C78.9297 348.534 78.9297 341.878 78.9297 335.02Z" fill="#050505"/>
<path d="M316.599 0C329.623 0 342.647 0 356.065 0C356.065 6.36714 356.065 12.7343 356.065 19.2944C349.698 19.2944 343.331 19.2944 336.771 19.2944C336.771 25.6615 336.771 32.0286 336.771 38.5887C330.114 38.5887 323.458 38.5887 316.599 38.5887C316.599 51.6124 316.599 64.6361 316.599 78.0544C309.943 78.0544 303.286 78.0544 296.428 78.0544C296.428 84.711 296.428 91.3675 296.428 98.2258C290.061 98.2258 283.694 98.2258 277.134 98.2258C277.134 104.593 277.134 110.96 277.134 117.52C237.773 117.52 198.413 117.52 157.859 117.52C157.859 111.153 157.859 104.786 157.859 98.2258C216.466 97.7917 216.466 97.7917 276.257 97.3488C276.546 84.6145 276.835 71.8802 277.134 58.7601C283.79 58.7601 290.447 58.7601 297.305 58.7601C297.305 46.0258 297.305 33.2915 297.305 20.1714C303.672 20.1714 310.039 20.1714 316.599 20.1714C316.599 13.5148 316.599 6.85827 316.599 0Z" fill="#020202"/>
<path d="M78.9297 157.863C85.2968 157.863 91.664 157.863 98.224 157.863C98.224 170.887 98.224 183.911 98.224 197.329C104.881 197.329 111.537 197.329 118.395 197.329C118.395 184.305 118.395 171.282 118.395 157.863C124.763 157.863 131.13 157.863 137.69 157.863C137.69 183.911 137.69 209.958 137.69 236.795C131.323 236.795 124.955 236.795 118.395 236.795C118.395 243.162 118.395 249.529 118.395 256.089C112.028 256.089 105.661 256.089 99.1011 256.089C99.1011 249.722 99.1011 243.355 99.1011 236.795C92.4445 236.795 85.788 236.795 78.9297 236.795C78.9297 210.747 78.9297 184.7 78.9297 157.863Z" fill="#010101"/>
<path d="M78.9297 0C91.9534 0 104.977 0 118.395 0C118.395 6.65655 118.395 13.3131 118.395 20.1714C124.763 20.1714 131.13 20.1714 137.69 20.1714C137.69 32.9056 137.69 45.6399 137.69 58.7601C144.346 58.7601 151.003 58.7601 157.861 58.7601C157.861 71.4944 157.861 84.2286 157.861 97.3488C151.494 97.3488 145.127 97.3488 138.567 97.3488C138.567 90.9817 138.567 84.6145 138.567 78.0544C131.91 78.0544 125.254 78.0544 118.395 78.0544C118.395 65.0307 118.395 52.0071 118.395 38.5887C111.739 38.5887 105.082 38.5887 98.224 38.5887C98.224 32.2216 98.224 25.8544 98.224 19.2944C91.8569 19.2944 85.4898 19.2944 78.9297 19.2944C78.9297 12.9272 78.9297 6.56008 78.9297 0Z" fill="#020202"/>
<path d="M415.703 157.863C421.781 157.863 427.859 157.863 434.12 157.863C434.12 203.301 434.12 248.74 434.12 295.555C428.043 295.555 421.965 295.555 415.703 295.555C415.703 250.117 415.703 204.678 415.703 157.863Z" fill="black"/>
<path d="M0.875 157.863C6.95272 157.863 13.0304 157.863 19.2923 157.863C19.2923 203.301 19.2923 248.74 19.2923 295.555C13.2146 295.555 7.1369 295.555 0.875 295.555C0.875 250.117 0.875 204.678 0.875 157.863Z" fill="black"/>
<path d="M178.031 256.965C197.422 256.965 216.813 256.965 236.791 256.965C236.791 263.332 236.791 269.699 236.791 276.259C230.424 276.259 224.057 276.259 217.497 276.259C217.497 282.916 217.497 289.572 217.497 296.431C210.84 296.431 204.184 296.431 197.326 296.431C197.326 289.774 197.326 283.117 197.326 276.259C190.958 276.259 184.591 276.259 178.031 276.259C178.031 269.892 178.031 263.525 178.031 256.965Z" fill="#030303"/>
<path d="M375.365 156.984C395.045 156.984 414.725 156.984 435.002 156.984C435.002 203.001 435.002 249.018 435.002 296.43C428.345 296.43 421.689 296.43 414.83 296.43C414.83 302.797 414.83 309.164 414.83 315.724C408.463 315.724 402.096 315.724 395.536 315.724C395.536 322.091 395.536 328.459 395.536 335.019C382.512 335.019 369.489 335.019 356.07 335.019C356.07 328.652 356.07 322.284 356.07 315.724C368.805 315.724 381.539 315.724 394.659 315.724C394.659 309.068 394.659 302.411 394.659 295.553C401.316 295.553 407.972 295.553 414.83 295.553C414.83 250.115 414.83 204.677 414.83 157.861C401.807 157.861 388.783 157.861 375.365 157.861C375.365 157.572 375.365 157.283 375.365 156.984ZM415.707 157.861C415.707 203.3 415.707 248.738 415.707 295.553C421.785 295.553 427.863 295.553 434.125 295.553C434.125 250.115 434.125 204.677 434.125 157.861C428.047 157.861 421.969 157.861 415.707 157.861Z" fill="#1C1C1C"/>
<path d="M40.3438 316.602C52.7886 316.602 65.2335 316.602 78.0554 316.602C78.0554 322.39 78.0554 328.178 78.0554 334.142C65.6106 334.142 53.1657 334.142 40.3438 334.142C40.3438 328.354 40.3438 322.565 40.3438 316.602Z" fill="black"/>
<path d="M395.531 296.43C401.898 296.43 408.266 296.43 414.826 296.43C414.826 302.797 414.826 309.164 414.826 315.724C408.458 315.724 402.091 315.724 395.531 315.724C395.531 309.357 395.531 302.99 395.531 296.43Z" fill="#030303"/>
<path d="M356.945 316.539C369.68 316.539 382.414 316.539 395.534 316.539C395.534 322.617 395.534 328.695 395.534 334.956C382.8 334.956 370.065 334.956 356.945 334.956C356.945 328.879 356.945 322.801 356.945 316.539Z" fill="#030303"/>
<path d="M20.1719 296.43C26.539 296.43 32.9061 296.43 39.4662 296.43C39.4662 302.797 39.4662 309.164 39.4662 315.724C33.0991 315.724 26.732 315.724 20.1719 315.724C20.1719 309.357 20.1719 302.99 20.1719 296.43Z" fill="#020202"/>
<path d="M99.1016 137.691C105.179 137.691 111.257 137.691 117.519 137.691C117.519 144.059 117.519 150.426 117.519 156.986C111.441 156.986 105.363 156.986 99.1016 156.986C99.1016 150.619 99.1016 144.251 99.1016 137.691Z" fill="black"/>
</svg>
